<?xml version="1.0" encoding="UTF-8" standalone="no"?>
<!-- Created with Inkscape (http://www.inkscape.org/) -->

<svg
   xmlns:dc="http://purl.org/dc/elements/1.1/"
   xmlns:cc="http://creativecommons.org/ns#"
   xmlns:rdf="http://www.w3.org/1999/02/22-rdf-syntax-ns#"
   xmlns:svg="http://www.w3.org/2000/svg"
   xmlns="http://www.w3.org/2000/svg"
   xmlns:sodipodi="http://sodipodi.sourceforge.net/DTD/sodipodi-0.dtd"
   xmlns:inkscape="http://www.inkscape.org/namespaces/inkscape"
   width="210mm"
   height="297mm"
   viewBox="0 0 210 297"
   version="1.1"
   id="svg8"
   inkscape:version="0.92.4 (5da689c313, 2019-01-14)"
   sodipodi:docname="dibujo.svg">
  <defs
     id="defs2" />
  <sodipodi:namedview
     id="base"
     pagecolor="#ffffff"
     bordercolor="#666666"
     borderopacity="1.0"
     inkscape:pageopacity="0.0"
     inkscape:pageshadow="2"
     inkscape:zoom="0.98994949"
     inkscape:cx="450.84527"
     inkscape:cy="429.49333"
     inkscape:document-units="mm"
     inkscape:current-layer="layer1"
     showgrid="false"
     inkscape:object-paths="true"
     inkscape:snap-nodes="true"
     inkscape:window-width="960"
     inkscape:window-height="1048"
     inkscape:window-x="1728"
     inkscape:window-y="286"
     inkscape:window-maximized="0" />
  <metadata
     id="metadata5">
    <rdf:RDF>
      <cc:Work
         rdf:about="">
        <dc:format>image/svg+xml</dc:format>
        <dc:type
           rdf:resource="http://purl.org/dc/dcmitype/StillImage" />
        <dc:title />
      </cc:Work>
    </rdf:RDF>
  </metadata>
  <g
     inkscape:label="Capa 1"
     inkscape:groupmode="layer"
     id="layer1">
    <path
       style="opacity:1;fill:#00ff07;fill-opacity:1;stroke:none;stroke-width:44.37741089;stroke-miterlimit:4;stroke-dasharray:none;stroke-opacity:1"
       d="M 65.481033,116.3258 59.333835,306.12897 179.87239,299.28511 176.13062,117.23832 Z"
       id="path815"
       inkscape:connector-curvature="0"
       sodipodi:nodetypes="ccccc" />
    <path
       style="opacity:1;fill:#ce3030;fill-opacity:1;stroke:none;stroke-width:33.96500015;stroke-miterlimit:4;stroke-dasharray:none;stroke-opacity:1"
       d="m 105.22399,176.8037 0.0431,-3.3794 c -0.0697,-2.8146 3.49251,-2.66051 3.35454,-0.0945 l -0.003,3.47181 z"
       id="path879"
       inkscape:connector-curvature="0"
       sodipodi:nodetypes="ccccc" />
    <path
       style="opacity:1;fill:#b22929;fill-opacity:1;stroke:none;stroke-width:33.96500015;stroke-miterlimit:4;stroke-dasharray:none;stroke-opacity:1"
       d="m 104.86033,176.80392 0.0167,-0.97725 4.10927,0.0167 0.005,0.95801 z"
       id="path881"
       inkscape:connector-curvature="0" />
    <path
       sodipodi:nodetypes="ccccc"
       inkscape:connector-curvature="0"
       id="path883"
       d="m 109.98652,176.8037 0.0431,-3.3794 c -0.0697,-2.8146 3.49251,-2.66051 3.35454,-0.0945 l -0.003,3.47181 z"
       style="opacity:1;fill:#d4d64b;fill-opacity:1;stroke:none;stroke-width:33.96500015;stroke-miterlimit:4;stroke-dasharray:none;stroke-opacity:1" />
    <path
       inkscape:connector-curvature="0"
       id="path885"
       d="m 109.62286,176.80392 0.0167,-0.97725 4.10927,0.0167 0.005,0.95801 z"
       style="opacity:1;fill:#c9cb2e;fill-opacity:1;stroke:none;stroke-width:33.96500015;stroke-miterlimit:4;stroke-dasharray:none;stroke-opacity:1" />
    <path
       style="opacity:1;fill:#3dd045;fill-opacity:1;stroke:none;stroke-width:33.96500015;stroke-miterlimit:4;stroke-dasharray:none;stroke-opacity:1"
       d="m 114.74905,176.8037 0.0431,-3.3794 c -0.0697,-2.8146 3.49251,-2.66051 3.35454,-0.0945 l -0.003,3.47181 z"
       id="path887"
       inkscape:connector-curvature="0"
       sodipodi:nodetypes="ccccc" />
    <path
       style="opacity:1;fill:#2bb233;fill-opacity:1;stroke:none;stroke-width:33.96500015;stroke-miterlimit:4;stroke-dasharray:none;stroke-opacity:1"
       d="m 114.38539,176.80392 0.0167,-0.97725 4.10927,0.0167 0.005,0.95801 z"
       id="path889"
       inkscape:connector-curvature="0" />
    <path
       sodipodi:nodetypes="ccccc"
       inkscape:connector-curvature="0"
       id="path897"
       d="m 119.51158,176.8037 0.0431,-3.3794 c -0.0697,-2.8146 3.49251,-2.66051 3.35454,-0.0945 l -0.003,3.47181 z"
       style="opacity:1;fill:#3486c1;fill-opacity:1;stroke:none;stroke-width:33.96500015;stroke-miterlimit:4;stroke-dasharray:none;stroke-opacity:1" />
    <path
       inkscape:connector-curvature="0"
       id="path899"
       d="m 119.14792,176.80392 0.0167,-0.97725 4.10927,0.0167 0.005,0.95801 z"
       style="opacity:1;fill:#3465c1;fill-opacity:1;stroke:none;stroke-width:33.96500015;stroke-miterlimit:4;stroke-dasharray:none;stroke-opacity:1" />
    <path
       style="opacity:1;fill:#e6e6e6;fill-opacity:1;stroke:none;stroke-width:33.96500015;stroke-miterlimit:4;stroke-dasharray:none;stroke-opacity:1"
       d="m 82.534411,176.81503 0.06682,9.02754 72.004459,-0.37797 -0.56696,-8.69346 z"
       id="path817"
       inkscape:connector-curvature="0"
       sodipodi:nodetypes="ccccc" />
    <path
       sodipodi:type="star"
       style="opacity:1;fill:#f301df;fill-opacity:1;stroke:none;stroke-width:33.96500015;stroke-miterlimit:4;stroke-dasharray:none;stroke-opacity:1"
       id="path819"
       sodipodi:sides="5"
       sodipodi:cx="85.526245"
       sodipodi:cy="179.26778"
       sodipodi:r1="5.4159188"
       sodipodi:r2="2.7079594"
       sodipodi:arg1="0.68052122"
       sodipodi:arg2="1.3088398"
       inkscape:flatsided="false"
       inkscape:rounded="0"
       inkscape:randomized="0"
       d="m 89.73574,182.67546 -3.508212,-0.79211 -2.64138,2.44093 -0.330757,-3.58129 -3.137687,-1.75781 3.303794,-1.42125 0.702182,-3.52731 2.372614,2.70291 3.571659,-0.42219 -1.837437,3.09174 z"
       inkscape:transform-center-x="0.29662514"
       inkscape:transform-center-y="-0.057268065"
       transform="matrix(0.6843881,0,0,0.65576987,29.62923,63.850875)" />
    <path
       transform="matrix(0.68006849,0.07677194,-0.07356166,0.65163089,104.9183,57.66212)"
       inkscape:transform-center-y="-0.18521772"
       inkscape:transform-center-x="0.17584045"
       d="m 89.73574,182.67546 -3.508212,-0.79211 -2.64138,2.44093 -0.330757,-3.58129 -3.137687,-1.75781 3.303794,-1.42125 0.702182,-3.52731 2.372614,2.70291 3.571659,-0.42219 -1.837437,3.09174 z"
       inkscape:randomized="0"
       inkscape:rounded="0"
       inkscape:flatsided="false"
       sodipodi:arg2="1.3088398"
       sodipodi:arg1="0.68052122"
       sodipodi:r2="2.7079594"
       sodipodi:r1="5.4159188"
       sodipodi:cy="179.26778"
       sodipodi:cx="85.526245"
       sodipodi:sides="5"
       id="path821"
       style="opacity:1;fill:#01ccf3;fill-opacity:1;stroke:none;stroke-width:33.96500015;stroke-miterlimit:4;stroke-dasharray:none;stroke-opacity:1"
       sodipodi:type="star" />
    <path
       style="opacity:1;fill:#d38efe;fill-opacity:1;stroke:none;stroke-width:33.96500015;stroke-miterlimit:4;stroke-dasharray:none;stroke-opacity:1"
       d="m 99.624716,178.19869 v 6.28084 h 20.882064 v -6.44754 z"
       id="path823"
       inkscape:connector-curvature="0"
       sodipodi:nodetypes="ccccc" />
    <text
       xml:space="preserve"
       style="font-style:normal;font-weight:normal;font-size:4.76456785px;line-height:1.25;font-family:'Comic Sans MS';letter-spacing:0px;word-spacing:0px;fill:#2c004a;fill-opacity:1;stroke:none;stroke-width:0.35734257;-inkscape-font-specification:'Comic Sans MS';font-stretch:normal;font-variant:normal;"
       x="101.16676"
       y="183.05885"
       id="text827"><tspan
         sodipodi:role="line"
         id="tspan825"
         x="101.16676"
         y="183.05885"
         style="stroke-width:0.35734257;fill:#2c004a;fill-opacity:1;-inkscape-font-specification:Loma;font-family:Loma;font-weight:normal;font-style:normal;font-stretch:normal;font-variant:normal;">C</tspan></text>
    <text
       xml:space="preserve"
       style="font-style:normal;font-weight:normal;font-size:3.52777767px;line-height:1.25;font-family:'Comic Sans MS';letter-spacing:0px;word-spacing:0px;fill:#2c004a;fill-opacity:1;stroke:none;stroke-width:0.26458332;-inkscape-font-specification:'Comic Sans MS';font-stretch:normal;font-variant:normal;"
       x="170.53543"
       y="115.46441"
       id="text843"
       transform="matrix(0.89876098,0.43843887,-0.37478044,0.92981526,0,0)"><tspan
         sodipodi:role="line"
         id="tspan841"
         x="170.53543"
         y="115.46441"
         style="stroke-width:0.26458332;fill:#2c004a;fill-opacity:1;-inkscape-font-specification:Loma;font-family:Loma;font-weight:normal;font-style:normal;font-stretch:normal;font-variant:normal;">O</tspan></text>
    <path
       style="opacity:1;fill:#2c004a;fill-opacity:1;stroke:none;stroke-width:27.33914375;stroke-miterlimit:4;stroke-dasharray:none;stroke-opacity:1"
       d="m 105.05171,182.8356 c -0.055,0.1048 0.18827,0.29633 0.33614,-0.0135 l 0.40337,-0.9143 0.60505,-0.0134 0.12101,0.94119 c 0.061,0.32615 0.35109,0.13871 0.33614,-0.0403 l -0.28235,-2.37989 c -0.0439,-0.14406 -0.3064,-0.20228 -0.41682,0 z"
       id="path849"
       inkscape:connector-curvature="0"
       sodipodi:nodetypes="ccccccccc" />
    <path
       style="opacity:1;fill:#d38efe;fill-opacity:1;stroke:none;stroke-width:27.33914375;stroke-miterlimit:4;stroke-dasharray:none;stroke-opacity:1"
       d="m 106.32741,180.79953 0.0419,0.78562 -0.41369,-0.002 z"
       id="path853"
       inkscape:connector-curvature="0"
       sodipodi:nodetypes="cccc" />
    <path
       style="opacity:1;fill:#2c004a;fill-opacity:1;stroke:none;stroke-width:33.96500015;stroke-miterlimit:4;stroke-dasharray:none;stroke-opacity:1"
       d="m 107.85314,182.94568 -0.0118,-2.75214 c 0.79805,-0.75963 2.6148,0.73064 1.11031,1.55916 l 0.7087,1.09849 c 0.0482,0.0974 -0.21005,0.50376 -0.49609,0 l -0.6969,-1.12212 h -0.21261 l -0.0118,1.22842 c -0.0354,0.21728 -0.41341,0.26504 -0.38978,-0.0118 z"
       id="path855"
       inkscape:connector-curvature="0"
       sodipodi:nodetypes="cccccccccc" />
    <path
       style="opacity:1;fill:#d38efe;fill-opacity:1;stroke:none;stroke-width:33.96500015;stroke-miterlimit:4;stroke-dasharray:none;stroke-opacity:1"
       d="m 108.14477,180.45378 0.0334,0.91039 c 0.004,0.0975 0.0733,0.11196 0.12529,0.10858 1.42235,0.16784 1.02034,-1.46987 -0.0748,-1.16931 -0.0532,0.019 -0.10307,0.0531 -0.0839,0.15034 z"
       id="path857"
       inkscape:connector-curvature="0"
       sodipodi:nodetypes="cccccc" />
    <path
       style="opacity:1;fill:#2c004a;fill-opacity:1;stroke:none;stroke-width:33.96500015;stroke-miterlimit:4;stroke-dasharray:none;stroke-opacity:1"
       d="m 114.72545,179.88583 c -0.45394,0.6481 -1.12079,3.34042 1.20271,3.37428 0.3734,-0.0223 0.1738,-0.52897 0.025,-0.49278 -1.43965,0.20375 -1.52403,-1.8087 -0.90204,-2.6894 0.10335,-0.19333 -0.17877,-0.39388 -0.32572,-0.1921 z"
       id="path859"
       inkscape:connector-curvature="0"
       sodipodi:nodetypes="ccccc" />
    <path
       style="opacity:1;fill:#d10000;fill-opacity:1;stroke:none;stroke-width:33.96500015;stroke-miterlimit:4;stroke-dasharray:none;stroke-opacity:1"
       d="m 130.36265,184.11401 c 2.71698,-3.59771 -0.29888,-7.16527 -1.93713,-3.96875 -4.28257,0.0813 -1.99459,4.08681 1.93713,3.96875 z"
       id="path861"
       inkscape:connector-curvature="0"
       sodipodi:nodetypes="ccc" />
    <path
       style="opacity:1;fill:#d5d5d5;fill-opacity:1;stroke:none;stroke-width:88.01930237;stroke-miterlimit:4;stroke-dasharray:none;stroke-opacity:1"
       d="m 106.47045,176.80293 c -0.0354,-0.0157 2.32319,0.14161 3.04312,-5.27059 0.75587,-5.68239 0.48645,-31.89827 0.48645,-31.89827 h 1.816 c 0.0309,1.9638 -0.43842,10.25766 -0.67257,18.67673 -0.23776,8.55446 0.43044,16.51183 2.58649,18.48508 z"
       id="path863"
       inkscape:connector-curvature="0"
       sodipodi:nodetypes="csccsccc" />
    <path
       sodipodi:nodetypes="csccsccc"
       inkscape:connector-curvature="0"
       id="path865"
       d="m 132.17942,176.78456 c 0,0 -1.60664,0.5117 -1.60664,-5.82267 0,-6.33437 -0.54123,-35.2477 -0.54123,-35.2477 h -2.02062 c -0.0341,2.17 0.48781,11.33471 0.74835,20.63782 0.26481,9.45275 -0.52848,18.25443 -2.92741,20.43483 z"
       style="opacity:1;fill:#d5d5d5;fill-opacity:1;stroke:none;stroke-width:97.5978775;stroke-miterlimit:4;stroke-dasharray:none;stroke-opacity:1" />
    <ellipse
       style="opacity:1;fill:#fefefe;fill-opacity:1;stroke:none;stroke-width:68.49172974;stroke-miterlimit:4;stroke-dasharray:none;stroke-opacity:1"
       id="path867"
       cx="111.6873"
       cy="136.90656"
       rx="4.5304813"
       ry="4.7616277" />
    <ellipse
       style="opacity:1;fill:#000000;fill-opacity:1;stroke:none;stroke-width:66.46690369;stroke-miterlimit:4;stroke-dasharray:none;stroke-opacity:1"
       id="path869"
       cx="111.68813"
       cy="138.68474"
       rx="2.2198093"
       ry="2.1942534" />
    <ellipse
       ry="4.7616277"
       rx="4.5304813"
       cy="135.02899"
       cx="128.69556"
       id="ellipse875"
       style="opacity:1;fill:#fefefe;fill-opacity:1;stroke:none;stroke-width:68.49172974;stroke-miterlimit:4;stroke-dasharray:none;stroke-opacity:1" />
    <ellipse
       ry="2.1942534"
       rx="2.2198093"
       cy="136.80716"
       cx="128.69637"
       id="ellipse877"
       style="opacity:1;fill:#000000;fill-opacity:1;stroke:none;stroke-width:66.46690369;stroke-miterlimit:4;stroke-dasharray:none;stroke-opacity:1" />
    <path
       style="opacity:1;fill:#79797c;fill-opacity:1;stroke:none;stroke-width:30.55907249;stroke-miterlimit:4;stroke-dasharray:none;stroke-opacity:1"
       d="m 85.280999,176.81334 c 0.347134,-3.83027 0.412024,-7.66053 0.45886,-11.4908 h 0.344218 c -0.0075,3.87616 -0.0597,7.73855 -0.469306,11.49055 z"
       id="path921"
       inkscape:connector-curvature="0"
       sodipodi:nodetypes="ccccc" />
    <path
       style="opacity:1;fill:#79797c;fill-opacity:1;stroke:none;stroke-width:33.96500015;stroke-miterlimit:4;stroke-dasharray:none;stroke-opacity:1"
       d="m 86.627524,176.81251 -0.0322,-11.48452 h 0.317381 l 0.09187,11.48429 z"
       id="path923"
       inkscape:connector-curvature="0" />
    <path
       style="opacity:1;fill:#79797c;fill-opacity:1;stroke:none;stroke-width:33.96500015;stroke-miterlimit:4;stroke-dasharray:none;stroke-opacity:1"
       d="m 88.599898,176.81131 c -1.196494,-3.03049 -0.700775,-7.65918 -1.051163,-11.48877 l 0.366165,-0.0118 c 0.174732,3.91736 -0.07429,8.0466 1.027625,11.50036 z"
       id="path925"
       inkscape:connector-curvature="0"
       sodipodi:nodetypes="ccccc" />
    <path
       inkscape:connector-curvature="0"
       id="path927"
       d="m 86.240046,176.81286 -0.01774,-11.48452 h 0.174881 l 0.05062,11.48429 z"
       style="opacity:1;fill:#98989a;fill-opacity:1;stroke:none;stroke-width:25.21233749;stroke-miterlimit:4;stroke-dasharray:none;stroke-opacity:1" />
    <path
       style="opacity:1;fill:#e6e6e6;fill-opacity:1;stroke:none;stroke-width:41.18087769;stroke-miterlimit:4;stroke-dasharray:none;stroke-opacity:1"
       d="m 85.508983,165.76075 2.63713,-0.0143 -0.01431,-3.39413 c -0.04297,-2.23999 -2.755573,-2.44533 -2.721019,-0.0286 z"
       id="path929"
       inkscape:connector-curvature="0"
       sodipodi:nodetypes="ccccc" />
    <path
       style="opacity:1;fill:#cbcbcb;fill-opacity:1;stroke:none;stroke-width:41.18087769;stroke-miterlimit:4;stroke-dasharray:none;stroke-opacity:1"
       d="m 88.446857,165.13062 v 0.78766 l -3.240548,0.0109 0.02031,-0.78481 z"
       id="path931"
       inkscape:connector-curvature="0"
       sodipodi:nodetypes="ccccc" />
    <path
       sodipodi:nodetypes="csccsccc"
       inkscape:connector-curvature="0"
       id="path4602"
       d="m 91.184115,236.23298 c -0.0675,0.0113 0.89029,-0.15133 1.67214,-3.0726 0.72157,-2.69607 0.24812,-14.96208 0.24812,-14.96208 h 1.14958 c 0.0196,0.95612 -0.27753,4.99416 -0.42576,9.09316 -0.15051,4.16492 0.27248,8.03913 1.63733,8.99985 l -4.22159,-0.0286 z"
       style="opacity:1;fill:#d5d5d5;fill-opacity:1;stroke:none;stroke-width:48.86489487;stroke-miterlimit:4;stroke-dasharray:none;stroke-opacity:1" />
    <path
       style="opacity:1;fill:#d5d5d5;fill-opacity:1;stroke:none;stroke-width:54.18254852;stroke-miterlimit:4;stroke-dasharray:none;stroke-opacity:1"
       d="m 158.9651,236.70158 c 0,0 -0.80769,-0.73786 -1.01705,-2.83489 -0.30638,-3.06877 -0.34261,-17.16108 -0.34261,-17.16108 h -1.2791 c -0.0216,1.0565 0.30879,5.51853 0.47372,10.04795 0.16763,4.60227 -0.33454,8.88755 -1.85314,9.94913 z"
       id="path4604"
       inkscape:connector-curvature="0"
       sodipodi:nodetypes="csccscc" />
    <ellipse
       ry="3.0142527"
       rx="2.8679302"
       cy="217.04466"
       cx="94.17247"
       id="ellipse4606"
       style="opacity:1;fill:#fefefe;fill-opacity:1;stroke:none;stroke-width:43.35731125;stroke-miterlimit:4;stroke-dasharray:none;stroke-opacity:1" />
    <ellipse
       ry="1.389028"
       rx="1.4052056"
       cy="218.1703"
       cx="94.173004"
       id="ellipse4608"
       style="opacity:1;fill:#000000;fill-opacity:1;stroke:none;stroke-width:42.07553482;stroke-miterlimit:4;stroke-dasharray:none;stroke-opacity:1" />
    <ellipse
       style="opacity:1;fill:#fefefe;fill-opacity:1;stroke:none;stroke-width:43.35731125;stroke-miterlimit:4;stroke-dasharray:none;stroke-opacity:1"
       id="ellipse4610"
       cx="156.75978"
       cy="216.2719"
       rx="2.8679302"
       ry="3.0142527" />
    <ellipse
       style="opacity:1;fill:#000000;fill-opacity:1;stroke:none;stroke-width:42.07553482;stroke-miterlimit:4;stroke-dasharray:none;stroke-opacity:1"
       id="ellipse4612"
       cx="156.7603"
       cy="217.39752"
       rx="1.4052056"
       ry="1.389028" />
    <text
       xml:space="preserve"
       style="font-style:normal;font-weight:normal;font-size:22.57777786px;line-height:1.25;font-family:'Comic Sans MS';letter-spacing:0px;word-spacing:0px;fill:#ededed;fill-opacity:1;stroke:none;stroke-width:1.16499996;stroke-miterlimit:4;stroke-dasharray:none;stroke-opacity:1;paint-order:stroke fill markers;-inkscape-font-specification:'Comic Sans MS';font-stretch:normal;font-variant:normal;"
       x="98.539528"
       y="235.86684"
       id="text4628"><tspan
         sodipodi:role="line"
         id="tspan4626"
         x="98.539528"
         y="235.86684"
         style="fill:#ededed;fill-opacity:1;stroke:none;stroke-width:1.16499996;stroke-miterlimit:4;stroke-dasharray:none;stroke-opacity:1;paint-order:stroke fill markers;-inkscape-font-specification:Loma;font-family:Loma;font-weight:normal;font-style:normal;font-stretch:normal;font-variant:normal;">Carol</tspan></text>
    <text
       id="text4632"
       y="257.56268"
       x="98.539528"
       style="font-style:normal;font-weight:normal;font-size:22.57777786px;line-height:1.25;font-family:'Comic Sans MS';letter-spacing:0px;word-spacing:0px;fill:#ededed;fill-opacity:1;stroke:none;stroke-width:1.16499996;stroke-miterlimit:4;stroke-dasharray:none;stroke-opacity:1;paint-order:stroke fill markers;-inkscape-font-specification:'Comic Sans MS';font-stretch:normal;font-variant:normal;"
       xml:space="preserve"><tspan
         style="fill:#ededed;fill-opacity:1;stroke:none;stroke-width:1.16499996;stroke-miterlimit:4;stroke-dasharray:none;stroke-opacity:1;paint-order:stroke fill markers;-inkscape-font-specification:Loma;font-family:Loma;font-weight:normal;font-style:normal;font-stretch:normal;font-variant:normal;"
         y="257.56268"
         x="98.539528"
         id="tspan4630"
         sodipodi:role="line">Carol</tspan></text>
    <path
       transform="matrix(0.6843881,0,0,0.65576987,33.371193,132.22678)"
       inkscape:transform-center-y="-0.057268065"
       inkscape:transform-center-x="0.29662514"
       d="m 89.73574,182.67546 -3.508212,-0.79211 -2.64138,2.44093 -0.330757,-3.58129 -3.137687,-1.75781 3.303794,-1.42125 0.702182,-3.52731 2.372614,2.70291 3.571659,-0.42219 -1.837437,3.09174 z"
       inkscape:randomized="0"
       inkscape:rounded="0"
       inkscape:flatsided="false"
       sodipodi:arg2="1.3088398"
       sodipodi:arg1="0.68052122"
       sodipodi:r2="2.7079594"
       sodipodi:r1="5.4159188"
       sodipodi:cy="179.26778"
       sodipodi:cx="85.526245"
       sodipodi:sides="5"
       id="path4634"
       style="opacity:1;fill:#f301df;fill-opacity:1;stroke:none;stroke-width:33.96500015;stroke-miterlimit:4;stroke-dasharray:none;stroke-opacity:1"
       sodipodi:type="star" />
    <path
       sodipodi:type="star"
       style="opacity:1;fill:#01ccf3;fill-opacity:1;stroke:none;stroke-width:33.96500015;stroke-miterlimit:4;stroke-dasharray:none;stroke-opacity:1"
       id="path4636"
       sodipodi:sides="5"
       sodipodi:cx="85.526245"
       sodipodi:cy="179.26778"
       sodipodi:r1="5.4159188"
       sodipodi:r2="2.7079594"
       sodipodi:arg1="0.68052122"
       sodipodi:arg2="1.3088398"
       inkscape:flatsided="false"
       inkscape:rounded="0"
       inkscape:randomized="0"
       d="m 89.73574,182.67546 -3.508212,-0.79211 -2.64138,2.44093 -0.330757,-3.58129 -3.137687,-1.75781 3.303794,-1.42125 0.702182,-3.52731 2.372614,2.70291 3.571659,-0.42219 -1.837437,3.09174 z"
       inkscape:transform-center-x="0.17584045"
       inkscape:transform-center-y="-0.18521772"
       transform="matrix(0.68006849,0.07677194,-0.07356166,0.65163089,113.64951,127.17194)" />
  </g>
</svg>
